<?xml version="1.0" encoding="utf-8"?>
<!-- Generator: Adobe Illustrator 23.0.3, SVG Export Plug-In . SVG Version: 6.00 Build 0)  -->
<svg version="1.1" id="Capa_1" xmlns="http://www.w3.org/2000/svg" xmlns:xlink="http://www.w3.org/1999/xlink" x="0px" y="0px"
	 viewBox="0 0 1200 1200" enable-background="new 0 0 1200 1200" xml:space="preserve">
<g>
	<path fill="#F4E9E9" d="M836.054,350.105c-19.441-15.185-44.611-19.372-65.916-7.293c-21.213,12.033-22.018,43.46-19.28,65.134
		c2.117,16.657,6.465,33.014,12.884,48.522c4.418,10.722,9.571,21.19,16.128,30.737c30.278,44.082,93.548,58.668,116.417,30.554
		c17.394-21.351,9.18-55.471,0.828-78.731C885.174,405.874,864.123,371.984,836.054,350.105z M843.002,457.778
		c-41.367,15.207-68.607-71.207-40.906-83.217C844.889,356.017,884.369,442.548,843.002,457.778z M596.802,381.187
		c-31.405-20.799-58.531-25.883-85.357-16.013l-0.23,0.092c-26.09,9.71-47.97,32.118-58.576,60.003
		c-22.639,59.566-1.541,121.387,34.166,170.829c31.405,43.507,80.042,83.516,136.939,77.649
		c55.033-5.66,93.409-50.892,91.016-104.936c-1.242-28.138-11.71-58.462-32.026-92.766
		C658.231,434.656,629.311,402.745,596.802,381.187z M650.339,567.408c-56.643,65.019-184.265-82.596-104.936-135.949
		c3.221-2.186,6.442-3.865,9.686-5.085c32.049-12.239,67.986,24.733,85.564,47.694C660.992,500.664,675.256,538.787,650.339,567.408
		z"/>
	<path fill="#EB8928" d="M285.307,1002.797c-31.799-14.61-58.376-33.718-80.341-56.194c6.011,0.43,12.128,0.631,18.222,0.631
		c14.747,0,29.334-1.104,41.689-2.439c13.39,18.52,50.224,27.194,66.008,28.322c2.83,0.207,5.706,0.322,8.605,0.322
		c27.517,0,57.909-9.295,77.235-30.094c0.092-0.092,0.184-0.184,0.276-0.276c6.917-7.518,11.778-15.588,14.987-24.037
		c-0.977,15.625-6.291,31.362-17.84,46.953C384.238,1002.797,329.02,1021.203,285.307,1002.797z M168.683,850.743
		c6.028-2.393,9.548-3.82,10.422-9.457c-3.543-10.974-25.838-21.236-33.729-25.238c-5.307-2.68-10.51-5.465-15.529-8.525
		c5.029,19.452,11.496,38.321,19.561,56.324C155.257,856.066,162.557,853.166,168.683,850.743z M115.762,694.72
		c11.213-4.861,24.107-7.444,36.333-9.884c13.597-2.692,24.618-5.223,32.67-9.133c10.261-13.874,3.037-33.637-8.122-45.094
		c-11.411-11.734-26.596-18.682-40.677-26.596c-4.43-2.496-8.692-5.123-12.801-7.872
		C118.131,628.342,115.455,661.593,115.762,694.72z M714.961,802.962c-2.811-11.618-4.968-23.265-6.62-34.609
		c-62.315,14.064-131.537,10.584-182.049,4.39C583.625,801.263,652.039,814.57,714.961,802.962z M987.51,550.06
		c-8.029,16.957-17.531,33.039-29.587,47.465c-10.768,12.884-21.949,25.238-33.522,37.064c5.406,6.88,10.928,13.758,16.312,20.454
		c5.418,6.737,10.885,13.556,16.299,20.452c29.279-50.51,40.458-108.159,45.313-166.214
		C996.741,526.229,990.957,542.794,987.51,550.06z M1113.259,513.075c2.729,8.673,4.476,17.728,4.91,27.276
		c6.617,83.809-64.985,140.125-125.646,185.178c8.668,14.509,14.169,29.115,16.476,43.744c0.322-0.828,0.805-1.587,1.495-2.209
		c60.716-54.274,100.887-110.596,119.408-167.424C1137.753,575.52,1131.992,546.09,1113.259,513.075z M570.504,983.816
		c-1.518,3.842-5.429,4.832-8.651,2.278c-2.211-1.746-3.685-3.917-4.743-6.312c-26.345,8.26-52.756,16.321-78.543,25.316
		c-23.497,8.392-56.767,16.8-72.166,38.59c11.567-2.733,22.531-5.477,32.57-7.991c9.548-2.393,18.566-4.648,26.527-6.511
		c115.404-26.964,220.823-64.305,313.335-111.01l4.256-3.588c-4.003-2.462-7.845-5.223-11.504-8.329
		c-6.67-5.675-12.648-11.989-18.074-18.751c-52.367,43.495-116.585,66.901-182.019,87.734
		C571.788,978.126,571.618,981.001,570.504,983.816z M931.005,507.129c4.072-18.935,9.41-36.743,5.89-56.276
		c-3.221-17.9-9.939-36.168-15.898-53.262c-1.285-3.669,1.42-6.493,4.541-7.153c-21.273-30.524-57.319-50.082-94.591-54.356
		c3.339,1.697,6.604,3.534,9.732,5.508c30.53,19.326,52.226,49.857,66.743,82.459c15.231,34.257,26.458,83.861-7.592,111.032
		c-7.523,6.005-16.934,9.157-26.412,10.79c-12.616,2.177-25.637,1.726-38.11-1.11c32.163,26.854,78.552,8.538,96.502-25.118
		c0.879-1.903,1.708-3.826,2.494-5.764C932.055,512.595,930.421,509.854,931.005,507.129z M683.976,671.032
		c-53.216,35.11-126.172,19.626-175.776-14.77c-55.148-38.238-84.552-102.175-85.587-168.412
		c-0.262-16.163,1.496-32.428,5.466-47.832c-26.562,29.627-38.57,68.904-38.08,108.58c3.3,0.181,6.584,2.51,6.547,6.456
		c-0.736,82.043,73.324,129.554,144.002,150.168c6.12,1.772,5.062,11.572-1.541,11.296c-3.932-0.162-7.9-0.493-11.888-0.976
		c47.564,24.775,106.966,21.379,147.009-16.44c13.619-11.349,22.182-26.625,27.105-43.325
		C696.398,661.46,690.7,666.602,683.976,671.032z M1054.714,519.737c-7.546-6.419-18.52,4.325-10.974,10.997
		c6.281,5.569,12.792,10.906,18.866,16.726c5.499,5.292,10.284,11.964,16.657,16.221c3.566,2.393,9.824-0.713,9.248-5.315
		C1086.372,541.617,1066.541,529.814,1054.714,519.737z M1047.881,578.037c-5.177-7.5-10.33-15.001-16.289-21.925
		c-6.603-7.73-17.624,3.451-11.136,11.135c5.89,6.971,10.767,14.656,15.898,22.156c4.372,6.373,9.134,14.035,16.289,17.532
		c4.348,2.116,11.665-1.565,9.341-7.201C1058.718,591.865,1052.69,585.055,1047.881,578.037z M1016.085,635.142
		c3.014,5.107,5.706,10.353,7.961,15.829c2.093,5.061,3.957,10.353,7.385,14.656c3.911,4.9,10.399,0.253,10.974-4.557
		c1.357-11.388-7.155-24.525-13.045-33.705C1024.046,619.059,1011.001,626.559,1016.085,635.142z M639.963,887.738
		c1.749,4.394,8.881,5.568,10.124,0c4.394-19.672-5.085-41.276-11.021-59.704c-2.968-9.203-17.417-5.338-14.564,4.003
		C630.047,850.19,632.992,870.229,639.963,887.738z M611.25,932.763c0.644,3.704,0.944,7.8,2.186,11.319
		c1.817,5.177,8.259,4.832,10.192,0c3.244-8.099,0.782-18.474-1.68-26.458c-2.669-8.559-16.22-4.854-13.459,3.704
		C609.709,925.102,610.583,928.875,611.25,932.763z M585.16,906.489c2.784,3.129,8.95,0.758,8.582-3.567
		c-1.104-13.021-6.465-25.975-8.858-38.904c-2.623-14.058-4.463-28.207-6.396-42.357c-0.989-7.271-13.712-5.637-12.93,1.748
		c1.61,14.816,2.876,29.726,5.545,44.405C573.426,880.674,576.21,896.411,585.16,906.489z M553.847,966.422
		c1.381,7.086,2.002,14.932,8.006,19.672c3.221,2.553,7.132,1.564,8.651-2.278c2.784-7.04-0.276-14.449-1.956-21.466
		c-2.001-8.305-3.911-16.611-6.166-24.847c-2.416-8.789-15.599-5.085-13.597,3.727C550.672,949.582,552.237,958.001,553.847,966.422
		z M512.549,884.793c2.876,9.019,5.407,18.843,12.769,25.193c3.612,3.129,8.719,0.943,9.088-3.751
		c0.736-9.662-4.188-18.635-7.109-27.677c-3.244-10.054-5.683-20.246-7.362-30.691c-1.587-9.824-16.22-5.545-14.84,4.095
		C506.705,863.097,509.144,874.049,512.549,884.793z M492.556,985.656c6.695-7.799,3.934-20.223,3.635-29.725
		c-0.276-8.834-13.459-8.858-13.735,0c-0.299,9.502-3.06,21.927,3.635,29.725C487.609,987.428,491.037,987.428,492.556,985.656z"/>
	<path fill="#B3E84D" d="M928.306,308.137c-2.214,3.666-4.177,7.456-5.865,11.359c-4.478-2.705-9.024-5.371-13.707-7.951
		c4.463-10.974,13.827-38.307,10.63-67.503c4.233-4.786,26.78-28.874,42.633-17.785c7.753,5.407,5.683,11.895-0.507,24.364
		c-3.445,6.954-8.459,17.134-1.295,22.983c-2.582,1.963-5.097,4.007-7.537,6.126c-0.127-0.151-0.234-0.326-0.371-0.464
		c-3.428-3.429-8.053-2.738-11.526,0c-4.004,3.129-7.685,6.695-10.653,10.836c-2.922,4.05-6.051,9.686-4.257,14.748
		C926.303,306.114,927.192,307.298,928.306,308.137z M677.879,162.366c-1.955-15.001-3.911-24.135-14.517-24.526
		c-7.477-0.299-13.022,1.381-16.474,4.992c-3.267,3.406-4.187,7.892-4.44,10.63c3.359,2.531,6.557,5.246,9.548,8.191
		c10.466,10.318,17.68,22.139,22.666,34.005c2.699-4.717,5.708-9.26,8.983-13.634C679.836,177.205,678.779,169.269,677.879,162.366z
		 M206.98,912.188c-10.937,0.702-22.31-1.377-31.487-5.63c-7.5-3.474-3.497-15.047,4.049-15.001
		c4.941,0.028,9.907,0.594,14.868,1.14c-6.056-10.796-11.149-22.239-15.184-34.068c-2.092,1.109-4.258,1.978-6.31,2.788
		c-10.215,4.05-20.775,8.237-22.409,39.595c-0.437,8.352,2.301,14.955,8.329,20.201c13.447,11.663,41.174,14.841,69.046,14.402
		C220.234,928.562,213.256,920.694,206.98,912.188z M347.336,317.161c-13.08-1.501-26.805-1.39-40.403,1.217
		c-23.078,4.43-50.618,17-70.933,48.927c-21,6.853-40.06,18.914-55.019,35.252c-2.556-5.901-5.32-11.724-7.836-17.574
		c-1.633-3.818-3.267-7.66-4.832-11.572c-8.167-23.284-12.239-46.774,4.257-68.93c7.523-10.1,16.473-19.234,29.541-11.135
		c6.419,3.98,10.951,10.307,16.404,15.506c21.328,20.316,44.841-0.161,49.167-23.721c1.978-10.698,1.978-21.512,3.198-32.279
		c2.669-23.905,11.481-50.938,37.156-57.794c3.704-0.989,7.823-1.473,11.297,0.162c5.131,2.415,7.224,8.443,8.834,13.873
		c3.077,10.451,4.49,24.172,12.708,32.07C335.799,266.407,337.329,292.546,347.336,317.161z M231.148,346.584
		c-1.541-3.474-5.361-6.373-7.845-9.271c-2.462-2.853-4.326-6.212-5.913-9.617c-1.679-3.612-6.879-4.509-10.077-2.646
		c-3.704,2.163-4.349,6.489-2.646,10.1c3.911,8.283,11.342,19.486,21.259,20.522C230.987,356.202,232.781,350.289,231.148,346.584z
		 M327.916,287.916c-2.324-10.836-1.887-21.948-4.463-32.808c-1.818-7.708-12.447-5.337-13.069,1.772
		c-0.989,11.802-2.116,23.927,2.416,35.201C316.505,301.283,330.056,298.016,327.916,287.916z M150.142,522.02
		c-3.025-1.15-6.002-2.267-8.907-3.203c-8.65-2.807-4.969-16.427,3.75-13.666c1.075,0.342,2.161,0.681,3.246,1.02
		c-0.868-12.121-0.409-24.5,1.482-36.949c-8.036-0.945-16.094-2.284-22.835-1.781c-23.145,1.702-40.263,16.174-47.326,38.123
		c-3.451,10.744-3.29,20.316-0.484,29.013c6.488,11.25,14.633,21.879,23.882,31.22c13.597,11.113,30.922,20.891,48.039,30.531
		c32.394,18.244,62.994,35.499,60.233,60.946c-3.06,28.115-30.415,33.568-56.874,38.86c-28.23,5.637-54.919,10.951-57.979,40.631
		c-3.336,32.21,21.926,43.069,48.684,54.55c7.973,3.426,16.042,6.904,23.132,11.053c-0.789-13.964-0.137-27.823,2.083-41.147
		c0.845-4.396,1.967-8.625,3.288-12.733c-3.135,0.102-6.325-0.233-9.499-0.589c-6.649-0.736-13.137-1.772-19.464-4.049
		c-8.168-2.946-4.809-15.876,3.635-13.161c6.419,2.048,12.769,2.577,19.442,3.152c3.831,0.325,7.459,0.723,10.805,2.05
		c9.328-20.07,24.261-36.546,41.637-50.748c10.918-15.306,24.274-27.593,37.832-37.372
		C200.764,630.438,160.052,580.497,150.142,522.02z"/>
	<path fill="#779635" d="M1138.461,495.189c-0.529,13.113-3.82,22.593-6.811,28.667c-8.765-19.188-21.879-39.527-39.273-60.648
		c-2.07-2.53-4.21-5.038-6.396-7.592c3.382-8.006,11.342-28.874,13.666-53.492c0.207-2.255,0.345-4.463,0.438-6.649
		c1.518-1.15,4.095-2.692,6.603-2.231c3.106,0.552,6.304,4.325,9.042,10.606c4.372,10.054,0.138,16.289-4.762,23.514
		c-4.901,7.177-11.573,17.025-0.644,27.954c4.44,4.44,8.88,7.776,12.792,10.698C1133.1,473.516,1139.128,478.025,1138.461,495.189z
		 M1021.193,279.863c-3.934-6.119-17.923-4.648-30.255-3.359c-10.951,1.15-21.259,2.232-28.207-1.242
		c-0.996-0.498-1.809-1.063-2.537-1.658c-2.582,1.963-5.097,4.007-7.537,6.126c2.506,2.986,2.935,8.481-0.371,11.086
		c-3.474,2.738-6.534,5.774-9.364,9.179c-2.945,3.543-5.223,7.339-9.732,9.02c-1.769,0.662-3.504,0.162-4.885-0.877
		c-2.214,3.666-4.177,7.456-5.865,11.359c3.067,1.854,6.119,3.716,9.093,5.624c2.554-2.577,25.469-22.893,40.953-26.482
		c13.138-4.786,28.736-7.317,46.245-4.441c1.656,0.138,3.267,0.276,4.785,0.483c0.07,0,0.115,0,0.161,0.024
		C1024.943,292.012,1025.817,287.065,1021.193,279.863z M715.818,176.354c-7.363,4.946-14.311,9.594-21.65,10.054
		c-0.368,0.022-0.736,0.046-1.081,0.046c-4.327,0-7.31-1.733-9.442-4.431c-3.275,4.373-6.284,8.916-8.983,13.634
		c5.843,13.907,8.616,27.877,9.821,39.572c1.289,6.788,2.117,14.495,0.759,21.282c-0.023,0.529-0.046,1.058-0.069,1.541
		c4.417-0.115,8.811-0.184,13.16-0.184c0.207-4.233,1.518-8.788,2.347-11.871c3.106-11.527,6.534-23.26,11.573-34.096
		c6.58-14.127,20.499-34.374,36.903-43.208C738.641,162.227,729.094,167.45,715.818,176.354z M178.476,735.893
		c1.637,0.649,3.212,1.503,4.701,2.712c2.416,1.956,1.818,6.788-1.035,8.076c-2.769,1.235-5.652,1.712-8.584,1.808
		c-1.321,4.107-2.442,8.337-3.288,12.733c-2.22,13.324-2.873,27.183-2.083,41.147c11.426,6.686,20.298,15.128,22.03,27.99
		c0.552,4.072,0.621,7.501,0.368,10.515c0.529,3.727-0.276,7.293-3.129,10.399c-2.126,3.479-5.093,5.695-8.231,7.357
		c4.036,11.829,9.128,23.272,15.184,34.068c3.239,0.356,6.477,0.702,9.704,0.884c7.822,0.461,15.645,0.599,23.33,2.21
		c4.831,1.012,5.452,8.075,1.357,10.376c-6.406,3.606-14.003,5.519-21.821,6.021c6.276,8.506,13.254,16.374,20.902,23.427
		c13.475-0.212,26.983-1.265,38.927-2.622c0.253-0.046,0.483-0.07,0.736-0.092c4.647-0.529,9.019-1.104,13.068-1.68
		c-31.635-20.408-56.091-54.091-72.795-100.565c-8.582-23.882-12.769-46.429-12.631-67.55c-0.437-8.512,0-16.887,1.587-24.893
		c0.161-0.759,0.529-1.357,1.035-1.818c2.554-12.838,6.902-25.009,13.091-36.535c2.797-5.201,5.905-10.081,9.212-14.717
		C202.737,699.346,187.805,715.823,178.476,735.893z M395.718,170.258c-8.628,7.569-11.365,19.625-14.77,30.829
		c-3.313,10.859-7.04,22.432-12.769,32.279c-4.786,8.237-13.827,16.68-23.767,10.561c-1.31-0.807-2.473-1.742-3.535-2.764
		c-5.078,25.244-3.548,51.383,6.46,75.998c24.677,2.833,47.018,11.509,61.588,20.727c-12.93-24.296-15.645-55.862-13.896-81.676
		c1.266-18.751,7.823-36.19,17.486-51.951c6.81-13.067,16.703-26.344,31.06-37.984C421.877,159.007,406.854,162.113,395.718,170.258
		z M180.982,402.558c3.405,7.859,6.429,15.862,7.901,24.299c0.989,5.729,0.828,11.618-0.552,17.141
		c-0.23,3.06-0.736,6.073-1.611,9.041c-5.389,18.382-21.154,18.05-37.006,16.184c-1.892,12.448-2.351,24.827-1.482,36.949
		c11.988,3.752,24.5,7.431,35.935,12.346c5.798,2.485,2.232,10.607-2.968,10.928c-10.4,0.619-21.001-3.601-31.057-7.426
		c9.91,58.477,50.622,108.418,107.803,125.752c11.253-8.117,22.646-14.512,32.906-19.418c-37.617-13.482-67.71-44.197-80.065-83.171
		c-18.152-57.151-10.031-118.878,20.27-170.346c0.415-0.691,0.875-1.22,1.381-1.611c1.159-2.048,2.351-4.014,3.565-5.921
		C215.001,374.158,195.941,386.219,180.982,402.558z"/>
	<path fill="#A02B37" d="M1020.319,308.277c29.334,3.152,51.053,27.954,62.073,52.64c11.021,24.688-4.969,85.058-4.969,85.058
		s-14.839-15.76-22.961-23.675c4.003-14.149,15.622-66.537-24.548-88.738c-36.421-20.131-62.626,0.115-71.99,9.456
		c-3.797-2.669-7.616-5.315-11.481-7.96C959.695,310.578,994.85,305.54,1020.319,308.277z M981.299,729.125
		c-2.378-3.816-4.874-7.596-7.417-11.361c10.029,57.065-1.567,114.223-55.876,144.688c-34.511,20.706-80.525,6.902-105.833-27.609
		c-20.785-25.581-43.779-53.388-55.882-84.958c-12.015,5.341-24.26,10.363-36.676,14.694c1.61,6.534,3.267,13.068,4.969,19.579
		c5.959,15.231,12.24,30.485,18.981,45.187c9.111,19.832,20.27,39.182,35.753,54.758c21.466,21.627,49.121,32.325,79.697,29.84
		c57.15-4.648,123.572-50.317,137.285-108.226C1002.281,780.478,997.242,754.71,981.299,729.125z M731.095,204.308
		c-14.426,24.939-15.139,53.4-15.162,53.768c0,0.069,0,0.115-0.023,0.184c4.349,0.183,8.674,0.437,12.976,0.736
		c2.577-12.355,11.342-43.53,36.42-60.486c16.865-11.411,37.64-14.081,61.775-7.938c24.089,6.098,41.206,18.406,50.846,36.536
		c14.38,27.056,7.799,58.921,4.417,71.07c5.499,2.53,10.882,5.177,16.151,7.891c5.498-14.173,17.946-53.377,2.439-86.415
		c-10.86-23.145-33.522-39.227-67.365-47.762c-27.264-6.88-50.225-6.351-68.562,1.473c-7.569,5.66-15.668,10.238-22.501,17.163
		C738.297,194.782,734.477,199.408,731.095,204.308z M424.731,208.358c-7.708,15.092-10.607,31.06-11.136,47.855
		c-0.851,27.448,2.393,54.389,13.85,79.076c1.358,1.679,2.738,3.083,4.118,4.164c0.667-0.437,1.312-0.875,1.978-1.289
		c5.476-3.475,10.951-6.788,16.427-10.008c-6.649-15.76-24.664-66.008-4.555-106.845c12.47-25.378,37.226-42.058,73.531-49.581
		c35.339-7.316,64.719-2.507,87.289,14.311c6.695,4.992,12.332,10.722,17.117,16.749c0.023,0.024,0.046,0.024,0.069,0.024
		c0.828,0.413,1.266,1.15,1.427,1.956c15.691,20.89,21.167,44.956,22.938,55.839c7.983-0.875,15.875-1.519,23.72-1.979
		c0.438-4.694,1.68-9.387,1.542-14.195c-0.161-6.396-1.45-12.7-3.129-18.843c-3.451-12.493-8.857-24.617-15.138-35.938
		c-11.435-20.614-26.804-32.968-47.211-41.321c-21.075-6.856-46.866-8.305-77.258-4.187c-47.096,6.349-75.901,24.434-93.547,44.933
		C432.369,195.289,428.182,201.616,424.731,208.358z M308.521,633.255c-25.492,10.423-66.192,32.417-87.52,72.128
		c-8.006,14.931-12.654,31.152-13.943,48.592c3.773,24.801,8.029,49.281,17.417,72.978c1.035,2.623,2.163,5.246,3.29,7.846
		c7.04,12.102,13.045,25.124,20.66,36.375c13.206,19.487,29.817,36.467,51.122,47.003c19.396,9.617,41.643,15.093,63.27,15.898
		c10.653,0.391,21.374-0.207,31.704-2.968c9.778-2.6,24.042-7.799,27.333-18.382c0.391-1.22,0.621-2.485,0.69-3.842
		c-86.093,21.811-158.243-42.334-170.598-125.459c-3.29-21.995-0.207-43.714,8.42-62.35c0.921-2.507,1.933-4.946,3.083-7.316
		c6.603-13.736,17.623-24.227,30.577-31.797c8.305-5.383,17.531-9.432,27.401-12.009c1.127-0.391,2.278-0.805,3.405-1.196
		c2.554-0.852,5.246-2.002,8.006-2.946c-3.244-9.939-6.028-20.039-8.259-30.369C319.127,635.05,313.767,634.313,308.521,633.255z
		 M396.984,365.174c4.509-3.934,9.226-7.753,14.126-11.48c-14.357-13.161-59.036-32.234-102.014-24.019
		c-35.041,6.718-60.762,30.185-75.602,68.447c0.207,0.69,0.207,1.495-0.092,2.369c-15.23,43.828-18.612,89.199-2.324,133.396
		c3.474,9.456,7.891,18.566,13.068,27.24c4.026,5.477,8.444,10.676,13.299,15.53c9.754,9.778,19.671,19.442,31.359,26.895
		c10.537,6.742,20.937,9.112,32.118,12.884c0.023,0,0.046,0,0.069-0.022c-1.081-6.58-2.047-13.229-2.876-19.925
		c-30.323-18.52-54.596-54.757-63.891-95.917c-9.203-40.768-2.485-80.71,18.406-109.583c7.845-10.836,16.519-18.751,25.561-24.48
		c20.959-20.707,65.088-24.572,88.738-5.361C391.186,362.643,394.614,364.093,396.984,365.174z"/>
	<path fill="#D43941" d="M996.828,351.301c-0.437,3.911,4.969,5.522,7.431,3.083c4.44-4.417,8.053-9.364,9.893-15.323
		c3.267,1.128,6.672,2.623,10.192,4.579c6.166,3.405,10.767,7.822,14.196,12.815c-2.692,1.633-5.269,3.521-8.099,4.946
		c-4.21,2.094-7.892,4.579-11.343,7.823c-3.704,3.497,0.138,9.939,4.97,8.536c5.936-1.726,14.909-3.866,20.522-8.536
		c4.878,15.806,2.485,33.499,0.253,43.898c-22.938-21.443-49.12-42.863-77.534-63.386c5.867-5.636,17.923-14.518,34.925-13.183
		c-0.828,1.495-1.68,2.968-2.461,4.487C998.094,344.237,997.242,347.712,996.828,351.301z M918.006,862.453
		c54.309-30.466,65.904-87.623,55.876-144.688c-12.911-19.108-27.702-37.564-42.117-55.497c-5.154-6.397-10.376-12.93-15.53-19.488
		c-24.434,23.997-50.731,45.577-79.375,64.282c7.225,3.244,12.7,11.964,17.578,17.762c8.582,10.169,16.703,20.753,24.204,31.75
		c13.85,20.338,29.633,46.153,28.552,71.805c-0.23,5.038-7.477,7.708-10.054,2.715c-11.319-21.949-22.455-43.53-36.696-63.869
		c-7.5-10.721-15.53-21.074-24.042-30.99c-5.062-5.936-13.367-12.033-14.15-19.993c-11.71,7.063-23.789,13.643-36.282,19.739
		c-9.693,4.732-19.606,9.428-29.677,13.904c12.103,31.57,35.098,59.377,55.882,84.958
		C837.48,869.355,883.495,883.159,918.006,862.453z M867.735,232.469c11.803,22.11,6.948,49.235,3.934,60.969
		c-39.112-16.796-83.401-28.851-131.187-33.476c2.646-11.642,10.721-38.054,31.313-51.951c14.035-9.456,31.681-11.572,52.457-6.303
		C845.05,206.999,859.682,217.33,867.735,232.469z M780.86,224.163c-3.221-5.682-12.217-1.886-10.514,4.418
		c2.232,8.236,2.945,21.488,11.227,26.136c2.255,1.265,5.89,0.736,7.086-1.864C792.939,243.42,785.438,232.193,780.86,224.163z
		 M831.981,223.197c-3.543-10.031-19.556-5.82-16.081,4.417c2.944,8.72-3.06,17.072-1.312,25.953
		c0.966,4.877,7.224,5.706,10.468,2.76C833.408,248.735,835.64,233.504,831.981,223.197z M852.619,252.324
		c-2.623,0.437-5.108,0.943-7.592,1.864c-4.049,1.449-6.764,5.406-5.568,9.778c1.082,3.888,5.729,7.017,9.778,5.544
		c2.554-0.92,4.924-1.909,7.386-2.646c3.152-0.966,5.706-1.656,8.351-3.727c1.772-1.38,2.232-4.301,1.68-6.327
		c-0.644-2.393-2.37-3.68-4.532-4.555C859.061,251.036,855.748,251.795,852.619,252.324z M636.328,262.056
		c-56.69,7.708-116.187,26.619-176.282,60.302c-6.327-15.668-21.627-60.785-4.325-95.963c10.859-22.041,32.9-36.627,65.571-43.391
		c31.957-6.627,58.185-2.531,77.994,12.193C625.883,214.983,634.074,248.965,636.328,262.056z M525.894,273.698
		c-2.922-7.685-11.113-12.309-17.762-16.634c-8.145-5.315-16.612-10.077-25.446-14.127c-7.546-3.451-14.241,7.569-6.603,11.297
		c7.869,3.864,15.415,8.328,22.685,13.206c6.212,4.188,13.114,11.411,20.614,12.746C522.926,280.83,527.458,277.816,525.894,273.698
		z M547.727,251.91c-0.414-14.678-7.063-28.23-6.626-43.069c0.161-5.936-9.709-7.547-10.606-1.427
		c-2.324,15.829,0.184,32.739,7.178,47.211C540.02,259.503,547.866,257.064,547.727,251.91z M598.32,219.102
		c-4.049-2.37-10.376-1.15-12.585,3.313c-1.91,3.842-4.21,7.362-6.511,10.951c-2.462,3.796-5.798,7.04-5.407,11.918
		c0.207,2.623,1.887,5.936,4.855,6.373c3.198,0.483,5.89,0.299,8.628-1.565c2.163-1.449,4.003-3.335,5.729-5.269
		c3.543-3.888,6.281-8.42,8.605-13.113C603.842,227.246,602.83,221.747,598.32,219.102z M310.016,689.829
		c7.339-3.612,15.024-6.442,22.754-9.133c1.519-0.529,3.129-0.99,4.74-1.473c5.177,14.057,11.136,27.816,17.486,41.437
		c10.606,26.78,22.547,53.077,34.718,78.708c2.646,5.59,5.591,11.365,8.697,17.44c12.93,25.354,27.287,53.468,26.136,79.834
		c-28.874,7.777-59.313,6.373-84.138-4.026c-46.613-19.533-74.543-72.311-73.324-121.201c0.414-17.325,2.324-37.318,10.56-52.826
		C284.709,705.29,296.764,696.34,310.016,689.829z M347.035,777.188c3.727-3.75-0.207-8.95-4.809-8.213
		c-13.597,2.139-25.975,14.126-37.433,21.166c-8.674,5.338-0.207,19.326,7.914,13.529c5.867-4.188,11.527-8.674,17.21-13.137
		C335.555,786.114,341.997,782.272,347.035,777.188z M348.346,852.997c-2.438,8.766,11.228,12.516,13.598,3.75
		c3.566-13.207,6.994-26.895,9.548-40.309c0.852-4.509-4.648-8.697-8.237-4.808C353.316,822.443,352.12,839.446,348.346,852.997z
		 M302.907,725.307c-9.479-4.072-17.715,9.939-8.167,13.965c15.898,6.742,32.946,12.676,50.455,11.067
		c6.764-0.621,9.295-10.928,1.726-12.654C331.919,734.28,317.126,731.45,302.907,725.307z M317.057,499.56
		c-3.083,26.643-3.014,54.55-0.552,81.998c-24.158-18.038-43.231-48.844-51.053-83.517c-8.49-37.547-2.462-74.106,16.496-100.312
		c25.515-35.247,60.716-35.89,85.081-30.599c6.419,2.531,11.825,6.373,15.392,11.664c-7.616,7.685-14.61,15.692-20.937,24.043
		C335.992,428.145,321.129,464.243,317.057,499.56z M313.882,392.853c2.048,10.077,4.118,19.602,8.95,28.805
		c2.093,4.003,9.571,2.393,8.973-2.439c-1.289-10.1-2.991-19.971-4.969-29.955C325.178,380.796,312.156,384.363,313.882,392.853z
		 M308.636,496.5c-8.306-2.347-17.877,2.278-25.239,5.614c-3.727,1.703-4.647,7.109-2.715,10.377
		c2.232,3.842,6.626,4.44,10.376,2.738c3.152-1.449,6.695-2.485,9.732-4.188c2.945-1.633,6.35-2.231,9.226-4.026
		C314.158,504.392,313.491,497.857,308.636,496.5z M316.274,454.81c-3.451-6.119-10.79-11.618-16.703-15.207
		c-5.108-3.106-12.056-6.742-17.417-2.255c-3.267,2.761-0.529,8.213,3.383,8.213c-0.944,0.046,2.323,1.565,3.198,2.14
		c2.439,1.633,4.717,3.52,7.017,5.315c4.257,3.289,9.709,7.662,15.001,8.973C314.894,463.025,318.391,458.584,316.274,454.81z"/>
	<path fill="#031A2D" d="M1129.995,456.812c-3.773-2.83-7.662-5.752-11.55-9.64c-3.727-3.727-3.497-5.223,2.024-13.344
		c5.361-7.892,12.723-18.706,5.821-34.581c-4.463-10.261-10.422-16.105-17.693-17.348c-3.129-0.552-6.028-0.138-8.536,0.691
		c-1.357-26.482-11.25-48.132-29.173-63.823c-9.778-10.1-22.294-17.762-35.823-21.696c1.91-5.912,1.841-14.034-4.187-23.421
		c-7.777-12.102-25.515-10.239-41.16-8.582c-8.191,0.85-17.462,1.84-21.742-0.07c0.138-1.84,2.324-6.281,3.819-9.271
		c5.062-10.169,13.505-27.218-3.198-38.906c-19.027-13.321-40.815,2.876-51.766,13.299c-1.335-5.131-3.083-10.261-5.452-15.277
		c-12.378-26.482-37.617-44.68-74.981-54.113c-29.84-7.523-55.263-6.788-75.924,2.048c-19.648-17.025-37.709-4.946-51.053,4.026
		c-6.051,4.049-11.734,7.868-15.967,8.121c-0.022,0-0.046,0-0.069,0c-2.255,0-3.267-7.776-4.095-14.057
		c-1.749-13.437-4.395-33.729-25.492-34.534c-10.905-0.413-19.372,2.462-25.216,8.536c-3.543,3.681-5.453,7.96-6.511,11.734
		c-25.975-14.955-60.555-19.648-103.302-13.873c-31.75,4.303-55.793,13.62-74.061,25.469
		c-63.063-25.767-84.436,20.753-97.297,48.752c-3.543,7.754-6.925,15.116-10.262,19.28c-2.392-3.588-3.336-8.628-4.877-12.4
		c-0.207-0.529-0.529-0.966-0.897-1.357c-2.669-10.676-6.902-22.801-17.325-27.747c-7.915-3.751-17.555-2.693-29.449,3.221
		c-14.909,7.408-24.042,18.727-29.863,31.381c-8.651,13.621-13.069,29.565-13.666,45.923c-0.299,8.65-1.104,17.163-3.221,25.561
		c-2.093,8.191-5.935,12.608-12.746,14.84c-4.233-0.898-8.765-4.947-15.415-11.619c-7.914-7.937-16.911-16.933-28.828-16.105
		c-9.157,0.667-18.152,7.109-27.517,19.694c-9.134,12.239-12.976,24.687-13.62,37.064c-0.484,2.439-0.875,4.901-0.989,7.385
		c-0.322,7.156,1.15,14.357,2.99,21.236c2.715,10.124,6.649,19.786,10.561,29.472c-19.993,22.823-31.727,39.02-45.716,63.362
		c-18.429,1.611-36.857,11.389-47.97,45.9c-5.407,16.864-3.543,31.313,2.876,43.967c-0.046,0.161-0.092,0.299-0.138,0.461
		c-1.035,0.736-1.864,1.91-2.278,3.566c-3.037,12.101-5.637,24.41-7.845,36.812c-7.385,35.96-11.067,73.623-10.998,110.987
		c-1.035,39.043,1.518,77.649,9.41,116.071c16.266,79.145,50.708,157.163,106.984,216.061c28.575,29.909,66.1,46.866,107.467,43.253
		c2.392,0.07,4.808,0.092,7.247,0.092c54.872,0,116.256-15.392,160.429-26.458c9.525-2.393,18.498-4.624,26.366-6.465
		c116.555-27.218,223.032-64.995,316.511-112.252c0.414-0.207,0.782-0.459,1.127-0.736l8.305-7.04
		c14.196,6.373,29.841,9.341,45.693,9.387c18.038,0.069,39.595-3.014,57.38-11.504c11.113-4.325,22.432-9.962,33.798-16.911
		c41.114-25.124,68.308-58.139,76.545-92.971c2.163-9.088,3.036-18.223,2.669-27.38c0-2.163,89.912-66.882,130.681-177.777
		c7.086-19.256,5.016-41.758-3.727-66.03c4.003-5.499,11.941-19.119,12.838-41.529
		C1150.862,472.458,1140.739,464.865,1129.995,456.812z M1082.392,360.918c11.021,24.688-4.969,85.058-4.969,85.058
		s-14.839-15.76-22.961-23.675c4.003-14.149,15.622-66.537-24.548-88.738c-36.421-20.131-62.626,0.115-71.99,9.456
		c-3.797-2.669-7.616-5.315-11.481-7.96c13.253-24.48,48.407-29.518,73.876-26.781
		C1049.653,311.43,1071.372,336.231,1082.392,360.918z M1004.26,354.384c4.44-4.417,8.053-9.364,9.893-15.323
		c3.267,1.128,6.672,2.623,10.192,4.579c6.166,3.405,10.767,7.822,14.196,12.815c-2.692,1.633-5.269,3.521-8.099,4.946
		c-4.21,2.094-7.892,4.579-11.343,7.823c-3.704,3.497,0.138,9.939,4.97,8.536c5.936-1.726,14.909-3.866,20.522-8.536
		c4.878,15.806,2.485,33.499,0.253,43.898c-22.938-21.443-49.12-42.863-77.534-63.386c5.867-5.636,17.923-14.518,34.925-13.183
		c-0.828,1.495-1.68,2.968-2.461,4.487c-1.68,3.197-2.531,6.672-2.945,10.261C996.391,355.212,1001.798,356.823,1004.26,354.384z
		 M919.363,244.041c4.233-4.786,26.78-28.874,42.633-17.785c7.753,5.407,5.683,11.895-0.507,24.364
		c-3.796,7.662-9.548,19.257,1.242,24.641c6.948,3.475,17.255,2.393,28.207,1.242c12.332-1.289,26.321-2.76,30.255,3.359
		c4.624,7.202,3.75,12.148,2.484,14.84c-0.046-0.024-0.092-0.024-0.161-0.024c-1.518-0.207-3.129-0.345-4.785-0.483
		c-17.509-2.876-33.107-0.345-46.245,4.441c-15.484,3.589-38.399,23.905-40.953,26.482c-7.316-4.694-14.909-9.226-22.8-13.575
		C913.197,300.57,922.561,273.237,919.363,244.041z M765.008,173.364c18.337-7.823,41.298-8.352,68.562-1.473
		c33.844,8.536,56.505,24.617,67.365,47.762c15.507,33.038,3.06,72.242-2.439,86.415c-5.269-2.714-10.652-5.361-16.151-7.891
		c3.382-12.148,9.962-44.014-4.417-71.07c-9.64-18.131-26.758-30.439-50.846-36.536c-24.135-6.143-44.91-3.474-61.775,7.938
		c-25.078,16.957-33.844,48.131-36.42,60.486c-4.303-0.299-8.628-0.553-12.976-0.736c0.023-0.07,0.023-0.116,0.023-0.184
		c0.023-0.368,0.736-28.829,15.162-53.768c3.382-4.9,7.202-9.525,11.411-13.781C749.339,183.601,757.438,179.023,765.008,173.364z
		 M871.669,293.438c-39.112-16.796-83.401-28.851-131.187-33.476c2.646-11.642,10.721-38.054,31.313-51.951
		c14.035-9.456,31.681-11.572,52.457-6.303c20.799,5.291,35.431,15.622,43.483,30.761
		C879.538,254.579,874.683,281.704,871.669,293.438z M646.888,142.832c3.451-3.612,8.996-5.291,16.474-4.992
		c10.606,0.391,12.562,9.525,14.517,24.526c1.404,10.768,3.152,24.089,15.208,24.089c0.345,0,0.713-0.024,1.081-0.046
		c7.339-0.461,14.287-5.108,21.65-10.054c13.275-8.904,22.823-14.127,33.337-7.662c-16.404,8.834-30.323,29.081-36.903,43.208
		c-5.039,10.836-8.466,22.569-11.573,34.096c-0.829,3.083-2.14,7.638-2.347,11.871c-4.349,0-8.743,0.07-13.16,0.184
		c0.023-0.483,0.046-1.012,0.069-1.541c1.357-6.786,0.529-14.494-0.759-21.282c-2.232-21.673-9.755-51.168-32.486-73.577
		c-2.991-2.944-6.189-5.66-9.548-8.191C642.701,150.724,643.621,146.238,646.888,142.832z M530.311,144.144
		c30.392-4.118,56.184-2.669,77.258,4.187c20.407,8.352,35.776,20.707,47.211,41.321c6.281,11.32,11.687,23.444,15.138,35.938
		c1.68,6.143,2.968,12.447,3.129,18.843c0.138,4.808-1.104,9.502-1.542,14.195c-7.845,0.461-15.737,1.104-23.72,1.979
		c-1.772-10.882-7.248-34.949-22.938-55.839c-0.161-0.805-0.598-1.542-1.427-1.956c-0.023,0-0.046,0-0.069-0.024
		c-4.785-6.027-10.422-11.756-17.117-16.749c-22.57-16.818-51.951-21.627-87.289-14.311c-36.305,7.523-61.061,24.204-73.531,49.581
		c-20.108,40.838-2.094,91.085,4.555,106.845c-5.476,3.221-10.951,6.534-16.427,10.008c-0.667,0.413-1.312,0.852-1.978,1.289
		c-1.381-1.082-2.761-2.485-4.118-4.164c-11.458-24.687-14.701-51.628-13.85-79.076c0.529-16.795,3.428-32.763,11.136-47.855
		c3.451-6.742,7.638-13.069,12.033-19.281C454.41,168.578,483.215,150.494,530.311,144.144z M636.328,262.056
		c-56.69,7.708-116.187,26.619-176.282,60.302c-6.327-15.668-21.627-60.785-4.325-95.963c10.859-22.041,32.9-36.627,65.571-43.391
		c31.957-6.627,58.185-2.531,77.994,12.193C625.883,214.983,634.074,248.965,636.328,262.056z M167.027,404.862
		c4.187,11.067,9.088,25.193,4.785,36.697c-3.359,8.95-13.574,15.277-23.444,17.025c-1.104-0.138-2.255-0.322-3.428-0.506
		c-4.763-0.713-9.824-1.473-15.07-1.887C141.121,437.188,151.451,422.969,167.027,404.862z M79.553,505.564
		c7.063-21.949,24.181-36.421,47.326-38.123c20.039-1.495,51.72,13.298,59.841-14.403c0.875-2.968,1.381-5.981,1.611-9.041
		c1.38-5.523,1.541-11.411,0.552-17.141c-2.577-14.77-9.87-28.23-15.737-41.874c-1.633-3.818-3.267-7.66-4.832-11.572
		c-8.167-23.284-12.239-46.774,4.257-68.93c7.523-10.1,16.473-19.234,29.541-11.135c6.419,3.98,10.951,10.307,16.404,15.506
		c21.328,20.316,44.841-0.161,49.167-23.721c1.978-10.698,1.978-21.512,3.198-32.279c2.669-23.905,11.481-50.938,37.156-57.794
		c3.704-0.989,7.823-1.473,11.297,0.162c5.131,2.415,7.224,8.443,8.834,13.873c3.475,11.802,4.809,27.793,16.243,34.833
		c9.939,6.119,18.981-2.324,23.767-10.561c5.729-9.847,9.456-21.42,12.769-32.279c3.405-11.205,6.143-23.26,14.77-30.829
		c11.136-8.145,26.159-11.251,47.855-3.98c-14.356,11.641-24.25,24.917-31.06,37.984c-9.663,15.76-16.22,33.2-17.486,51.951
		c-1.749,25.813,0.966,57.38,13.896,81.676c-22.294-14.103-62.741-27.034-101.991-19.51c-24.456,4.694-53.929,18.52-74.497,54.849
		c-0.506,0.391-0.966,0.92-1.381,1.611c-30.3,51.467-38.422,113.195-20.27,170.346c12.355,38.974,42.449,69.689,80.065,83.171
		c-26.366,12.608-60.256,34.879-79.95,71.507c-6.189,11.526-10.537,23.697-13.091,36.535c-0.506,0.461-0.874,1.058-1.035,1.818
		c-1.587,8.006-2.024,16.381-1.587,24.893c-0.138,21.121,4.049,43.668,12.631,67.55c16.703,46.474,41.16,80.157,72.795,100.565
		c-4.049,0.575-8.42,1.15-13.068,1.68c-0.253,0.022-0.483,0.046-0.736,0.092c-36.65,4.163-88.026,5.521-107.973-11.78
		c-6.028-5.246-8.766-11.849-8.329-20.201c1.634-31.359,12.194-35.546,22.409-39.595c5.131-2.024,10.998-4.348,14.541-10.145
		c2.853-3.106,3.658-6.672,3.129-10.399c0.253-3.014,0.184-6.443-0.368-10.515c-2.807-20.844-24.341-30.094-45.163-39.043
		c-26.758-11.481-52.02-22.34-48.684-54.55c3.06-29.68,29.749-34.994,57.979-40.631c26.458-5.291,53.814-10.744,56.874-38.86
		c2.761-25.446-27.839-42.702-60.233-60.946c-17.118-9.64-34.442-19.418-48.039-30.531c-9.249-9.341-17.394-19.971-23.882-31.22
		C76.263,525.88,76.102,516.309,79.553,505.564z M324.833,668.755c-1.127,0.391-2.278,0.805-3.405,1.196
		c-9.87,2.577-19.096,6.626-27.401,12.009c-12.953,7.57-23.973,18.061-30.577,31.797c-1.15,2.369-2.163,4.808-3.083,7.316
		c-8.628,18.636-11.71,40.355-8.42,62.35c12.355,83.125,84.506,147.27,170.598,125.459c-0.069,1.357-0.299,2.622-0.69,3.842
		c-3.29,10.584-17.555,15.783-27.333,18.382c-10.33,2.761-21.051,3.359-31.704,2.968c-21.627-0.805-43.874-6.281-63.27-15.898
		c-21.305-10.536-37.916-27.517-51.122-47.003c-7.616-11.251-13.62-24.272-20.66-36.375c-1.127-2.6-2.255-5.223-3.29-7.846
		c-9.387-23.697-13.644-48.177-17.417-72.978c1.289-17.44,5.936-33.66,13.943-48.592c21.328-39.711,62.027-61.705,87.52-72.128
		c5.246,1.058,10.606,1.795,16.059,2.186c2.232,10.33,5.015,20.43,8.259,30.369C330.079,666.753,327.387,667.904,324.833,668.755z
		 M337.51,679.223c5.177,14.057,11.136,27.816,17.486,41.437c10.606,26.78,22.547,53.077,34.718,78.708
		c2.646,5.59,5.591,11.365,8.697,17.44c12.93,25.354,27.287,53.468,26.136,79.834c-28.874,7.777-59.313,6.373-84.138-4.026
		c-46.613-19.533-74.543-72.311-73.324-121.201c0.414-17.325,2.324-37.318,10.56-52.826c7.063-13.298,19.119-22.248,32.371-28.759
		c7.339-3.612,15.024-6.442,22.754-9.133C334.289,680.167,335.9,679.706,337.51,679.223z M316.505,581.558
		c-24.158-18.038-43.231-48.844-51.053-83.517c-8.49-37.547-2.462-74.106,16.496-100.312c25.515-35.247,60.716-35.89,85.081-30.599
		c6.419,2.531,11.825,6.373,15.392,11.664c-7.616,7.685-14.61,15.692-20.937,24.043c-25.492,25.308-40.354,61.406-44.427,96.723
		C313.974,526.202,314.043,554.11,316.505,581.558z M298.191,366.509c-9.042,5.729-17.716,13.644-25.561,24.48
		c-20.891,28.874-27.609,68.815-18.406,109.583c9.295,41.16,33.568,77.397,63.891,95.917c0.828,6.695,1.795,13.345,2.876,19.925
		c-0.023,0.022-0.046,0.022-0.069,0.022c-11.181-3.772-21.581-6.143-32.118-12.884c-11.688-7.454-21.604-17.117-31.359-26.895
		c-4.855-4.854-9.273-10.053-13.299-15.53c-5.177-8.674-9.594-17.785-13.068-27.24c-16.289-44.197-12.907-89.568,2.324-133.396
		c0.299-0.874,0.299-1.679,0.092-2.369c14.84-38.262,40.561-61.729,75.602-68.447c42.977-8.214,87.657,10.859,102.014,24.019
		c-4.9,3.727-9.617,7.546-14.126,11.48c-2.37-1.081-5.798-2.531-10.054-4.026C363.279,341.937,319.15,345.802,298.191,366.509z
		 M996.299,805.717c-13.712,57.909-80.134,103.579-137.285,108.226c-30.576,2.485-58.231-8.213-79.697-29.84
		c-15.484-15.576-26.642-34.925-35.753-54.758c-6.741-14.702-13.022-29.956-18.981-45.187c-1.703-6.51-3.359-13.045-4.969-19.579
		c22.823-7.96,45.094-18.222,66.353-28.598c12.493-6.097,24.572-12.676,36.282-19.739c0.782,7.96,9.088,14.057,14.15,19.993
		c8.513,9.916,16.542,20.27,24.042,30.99c14.241,20.339,25.377,41.92,36.696,63.869c2.577,4.992,9.824,2.323,10.054-2.715
		c1.081-25.653-14.702-51.467-28.552-71.805c-7.501-10.997-15.622-21.581-24.204-31.75c-4.878-5.798-10.353-14.518-17.578-17.762
		c28.644-18.705,54.941-40.285,79.375-64.282c5.154,6.557,10.376,13.091,15.53,19.488c17.255,21.465,35.086,43.667,49.535,66.858
		C997.242,754.71,1002.281,780.478,996.299,805.717z M1129.902,599.641c-18.521,56.827-58.691,113.15-119.408,167.424
		c-0.69,0.621-1.173,1.381-1.495,2.209c-2.439-15.461-8.398-30.899-17.946-46.221c-14.794-23.79-32.854-46.268-50.34-68.01
		c-5.384-6.695-10.906-13.574-16.312-20.454c11.573-11.826,22.754-24.18,33.522-37.064c12.056-14.426,21.557-30.508,29.587-47.465
		c8.26-17.416,29.955-88.232,30.14-89.773c0.414-3.152-1.818-6.028-4.97-6.419c-3.129-0.391-6.028,1.818-6.442,4.969
		c-0.138,1.128-16.451,114.691-179.019,230.901c-84.644,60.532-180.699,73.485-246.339,73.692c-0.575,0-1.127,0-1.68,0
		c-70.563,0-121.777-14.173-122.283-14.31c-3.037-0.852-6.235,0.92-7.086,3.979c-0.875,3.06,0.92,6.236,3.98,7.086
		c2.001,0.575,139.953,34.028,254.529,8.168c7.178,49.281,23.72,104.268,63.246,137.905c3.658,3.106,7.501,5.866,11.504,8.329
		l-4.256,3.588c-92.512,46.705-197.931,84.046-313.335,111.01c-7.961,1.864-16.98,4.118-26.527,6.511
		c-50.248,12.585-123.434,30.899-181.55,25.055c-28.805-6.303-53.883-18.29-75.509-40.769
		c-26.412-27.447-47.694-59.956-64.558-94.03c-34.833-70.356-51.697-150.882-51.099-229.222
		c0.345-46.498,7.086-91.568,14.149-137.284c6.005,7.248,13.413,13.874,21.581,19.971c9.962,9.341,21.328,17.462,33.982,24.595
		c14.08,7.914,29.265,14.863,40.677,26.596c11.159,11.458,18.383,31.22,8.122,45.094c-8.053,3.911-19.073,6.442-32.67,9.133
		c-29.634,5.914-63.224,12.632-67.159,50.732c-1.863,17.877,3.52,30.645,12.401,40.309c4.279,6.786,9.019,13.113,15.346,18.957
		c9.732,8.95,20.983,15.3,32.693,21.213c7.891,4.003,30.186,14.264,33.729,25.238c-0.875,5.637-4.395,7.064-10.422,9.457
		c-11.688,4.624-27.655,10.951-29.657,49.672c-0.621,11.964,3.497,21.879,12.263,29.495c15.507,13.437,44.013,17.325,71.898,17.325
		c14.747,0,29.334-1.104,41.689-2.439c13.39,18.52,50.224,27.194,66.008,28.322c2.83,0.207,5.706,0.322,8.605,0.322
		c27.517,0,57.909-9.295,77.235-30.094c0.092-0.092,0.184-0.184,0.276-0.276c46.797-50.869,0.138-126.862-23.79-176.12
		c-21.442-44.128-43.851-87.083-54.159-135.421c-13.206-61.821-13.344-129.278,13.344-187.693
		c30.347-66.399,94.606-106.018,159.234-134.384c126.908-55.746,276.501-54.229,397.749,15.644
		c6.741,3.888,13.39,7.984,19.879,12.286c63.27,41.85,118.05,89.131,154.24,133.121
		C1124.956,520.91,1140.992,565.567,1129.902,599.641z M1138.461,495.189c-0.529,13.113-3.82,22.593-6.811,28.667
		c-8.765-19.188-21.879-39.527-39.273-60.648c-2.07-2.53-4.21-5.038-6.396-7.592c3.382-8.006,11.342-28.874,13.666-53.492
		c0.207-2.255,0.345-4.463,0.438-6.649c1.518-1.15,4.095-2.692,6.603-2.231c3.106,0.552,6.304,4.325,9.042,10.606
		c4.372,10.054,0.138,16.289-4.762,23.514c-4.901,7.177-11.573,17.025-0.644,27.954c4.44,4.44,8.88,7.776,12.792,10.698
		C1133.1,473.516,1139.128,478.025,1138.461,495.189z M925.851,304.85c-1.795-5.062,1.335-10.698,4.257-14.748
		c2.968-4.141,6.649-7.708,10.653-10.836c3.474-2.738,8.098-3.429,11.526,0c2.853,2.852,3.474,8.812,0,11.55
		c-3.474,2.738-6.534,5.774-9.364,9.179c-2.945,3.543-5.223,7.339-9.732,9.02C929.992,310.21,926.864,307.68,925.851,304.85z
		 M931.695,393.059c20.385,37.11,40.332,81.836,8.973,119.706c-3.958,4.786-10.768-0.483-9.664-5.636
		c4.072-18.935,9.41-36.743,5.89-56.276c-3.221-17.9-9.939-36.168-15.898-53.262C918.765,391.219,928.566,387.353,931.695,393.059z
		 M840.679,341.592c-5.177-3.267-10.699-6.211-16.381-8.65c-26.274-11.251-56.253-11.734-74.313,15.552
		c-17.417,26.298-10.353,67.274-2.416,95.342c9.663,34.212,26.573,68.378,56.391,87.774c20.269,13.183,45.6,18.382,69.459,14.264
		c9.479-1.633,18.889-4.786,26.412-10.79c34.05-27.172,22.823-76.775,7.592-111.032
		C892.905,391.448,871.209,360.918,840.679,341.592z M896.287,517.759c-22.869,28.114-86.139,13.528-116.417-30.554
		c-6.557-9.548-11.71-20.016-16.128-30.737c-6.419-15.507-10.767-31.865-12.884-48.522c-2.738-21.674-1.933-53.101,19.28-65.134
		c21.305-12.079,46.474-7.892,65.916,7.293c28.069,21.879,49.121,55.769,61.061,88.923
		C905.467,462.288,913.681,496.408,896.287,517.759z M852.619,252.324c3.129-0.529,6.442-1.289,9.502-0.07
		c2.163,0.875,3.888,2.163,4.532,4.555c0.552,2.025,0.092,4.947-1.68,6.327c-2.646,2.072-5.2,2.761-8.351,3.727
		c-2.462,0.737-4.832,1.726-7.386,2.646c-4.049,1.473-8.696-1.656-9.778-5.544c-1.196-4.372,1.519-8.329,5.568-9.778
		C847.511,253.267,849.996,252.761,852.619,252.324z M843.002,457.778c-41.367,15.207-68.607-71.207-40.906-83.217
		C844.889,356.017,884.369,442.548,843.002,457.778z M831.981,223.197c3.658,10.307,1.427,25.538-6.925,33.13
		c-3.244,2.946-9.502,2.116-10.468-2.76c-1.749-8.88,4.256-17.233,1.312-25.953C812.425,217.376,828.439,213.166,831.981,223.197z
		 M780.86,224.163c4.578,8.03,12.079,19.257,7.799,28.691c-1.196,2.6-4.832,3.129-7.086,1.864
		c-8.282-4.648-8.996-17.9-11.227-26.136C768.643,222.277,777.638,218.481,780.86,224.163z M603.151,371.617
		c-34.258-22.686-65.548-28.322-95.756-17.187c-0.023,0-0.138,0.046-0.184,0.046c-60.509,15.944-85.541,75.326-84.598,133.373
		c1.035,66.237,30.439,130.174,85.587,168.412c49.604,34.396,122.56,49.88,175.776,14.77
		c34.465-22.707,42.287-63.914,42.287-102.727c0-30.094-12.332-62.166-33.636-98.126
		C667.227,427.271,637.133,394.117,603.151,371.617z M623.743,673.747c-56.897,5.866-105.534-34.142-136.939-77.649
		C451.097,546.656,430,484.835,452.638,425.269c10.607-27.885,32.486-50.293,58.576-60.003l0.23-0.092
		c26.826-9.87,53.952-4.786,85.357,16.013c32.509,21.558,61.429,53.469,85.932,94.859c20.316,34.304,30.784,64.628,32.026,92.766
		C717.152,622.855,678.776,668.088,623.743,673.747z M640.653,474.068c20.339,26.596,34.603,64.719,9.686,93.34
		c-56.643,65.019-184.265-82.596-104.936-135.949c3.221-2.186,6.442-3.865,9.686-5.085
		C587.138,414.134,623.076,451.106,640.653,474.068z M601.633,231.71c-2.324,4.694-5.061,9.225-8.605,13.113
		c-1.726,1.933-3.566,3.82-5.729,5.269c-2.738,1.864-5.43,2.048-8.628,1.565c-2.968-0.437-4.648-3.75-4.855-6.373
		c-0.391-4.878,2.945-8.122,5.407-11.918c2.301-3.589,4.602-7.109,6.511-10.951c2.209-4.463,8.536-5.683,12.585-3.313
		C602.83,221.747,603.842,227.246,601.633,231.71z M547.727,251.91c0.138,5.154-7.708,7.593-10.054,2.715
		c-6.994-14.472-9.502-31.382-7.178-47.211c0.897-6.12,10.767-4.509,10.606,1.427C540.664,223.68,547.313,237.231,547.727,251.91z
		 M539.008,716.518c-80.341-3.313-175.338-74.866-155.46-163.236c1.656-7.385,13.068-5.568,12.999,1.772
		c-0.736,82.043,73.324,129.554,144.002,150.168C546.669,706.993,545.611,716.794,539.008,716.518z M525.894,273.698
		c1.564,4.118-2.968,7.132-6.511,6.488c-7.5-1.335-14.403-8.558-20.614-12.746c-7.27-4.878-14.817-9.341-22.685-13.206
		c-7.638-3.727-0.943-14.748,6.603-11.297c8.834,4.05,17.301,8.812,25.446,14.127C514.781,261.389,522.972,266.013,525.894,273.698z
		 M348.346,852.997c3.773-13.552,4.97-30.554,14.909-41.367c3.589-3.889,9.088,0.299,8.237,4.808
		c-2.553,13.413-5.982,27.102-9.548,40.309C359.574,865.513,345.908,861.763,348.346,852.997z M302.907,725.307
		c14.219,6.143,29.012,8.973,44.013,12.378c7.569,1.726,5.038,12.033-1.726,12.654c-17.509,1.61-34.557-4.325-50.455-11.067
		C285.192,735.246,293.428,721.235,302.907,725.307z M347.035,777.188c-5.038,5.084-11.481,8.927-17.117,13.345
		c-5.683,4.463-11.343,8.949-17.21,13.137c-8.122,5.797-16.588-8.191-7.914-13.529c11.458-7.04,23.836-19.027,37.433-21.166
		C346.828,768.238,350.762,773.438,347.035,777.188z M313.882,392.853c-1.726-8.49,11.297-12.056,12.953-3.589
		c1.978,9.985,3.681,19.855,4.969,29.955c0.598,4.832-6.879,6.442-8.973,2.439C318,412.455,315.93,402.929,313.882,392.853z
		 M312.8,292.08c-4.532-11.273-3.405-23.398-2.416-35.201c0.621-7.109,11.251-9.479,13.069-1.772
		c2.577,10.86,2.14,21.971,4.463,32.808C330.056,298.016,316.505,301.283,312.8,292.08z M316.274,454.81
		c2.116,3.773-1.381,8.214-5.522,7.179c-5.292-1.311-10.744-5.683-15.001-8.973c-2.301-1.795-4.578-3.681-7.017-5.315
		c-0.875-0.575-4.141-2.094-3.198-2.14c-3.912,0-6.649-5.452-3.383-8.213c5.361-4.487,12.309-0.852,17.417,2.255
		C305.484,443.192,312.823,448.691,316.274,454.81z M310.016,507.014c-2.876,1.795-6.281,2.393-9.226,4.026
		c-3.037,1.703-6.58,2.739-9.732,4.188c-3.75,1.702-8.145,1.104-10.376-2.738c-1.933-3.268-1.012-8.674,2.715-10.377
		c7.363-3.335,16.934-7.96,25.239-5.614C313.491,497.857,314.158,504.392,310.016,507.014z M204.666,335.15
		c-1.703-3.612-1.058-7.938,2.646-10.1c3.198-1.864,8.397-0.966,10.077,2.646c1.587,3.405,3.451,6.764,5.913,9.617
		c2.484,2.898,6.304,5.798,7.845,9.271c1.633,3.705-0.161,9.617-5.223,9.088C216.009,354.637,208.577,343.433,204.666,335.15z
		 M179.543,891.557c8.168,0.046,16.404,1.565,24.572,2.024c7.822,0.461,15.645,0.599,23.33,2.21
		c4.831,1.012,5.452,8.075,1.357,10.376c-15.369,8.65-37.571,7.684-53.308,0.391C167.993,903.084,171.996,891.511,179.543,891.557z
		 M144.986,505.151c12.953,4.118,26.712,8.006,39.181,13.366c5.798,2.485,2.232,10.607-2.968,10.928
		c-13.528,0.805-27.401-6.58-39.964-10.628C132.585,516.01,136.266,502.39,144.986,505.151z M183.177,738.605
		c2.416,1.956,1.818,6.788-1.035,8.076c-5.729,2.554-11.941,1.909-18.083,1.219c-6.649-0.736-13.137-1.772-19.464-4.049
		c-8.168-2.946-4.809-15.876,3.635-13.161c6.419,2.048,12.769,2.577,19.442,3.152C173.377,734.326,178.646,734.923,183.177,738.605z
		"/>
	<path fill="#FDB930" d="M1118.169,540.352c-0.434-9.548-2.181-18.603-4.91-27.276c-7.73-13.622-17.653-27.85-29.762-42.574
		c-36.19-43.99-90.97-91.271-154.24-133.121c-6.488-4.302-13.138-8.397-19.879-12.286
		c-121.248-69.873-270.841-71.391-397.749-15.644c-64.628,28.367-128.887,67.986-159.234,134.384
		c-26.688,58.416-26.55,125.872-13.344,187.693c10.308,48.339,32.717,91.293,54.159,135.421
		c20.391,41.977,57.277,103.369,38.776,152.083c-0.977,15.625-6.291,31.362-17.84,46.953
		c-29.909,36.812-85.127,55.217-128.841,36.812c-31.799-14.61-58.376-33.718-80.341-56.194
		c-21.495-1.539-41.558-6.193-53.676-16.694c-8.766-7.616-12.884-17.531-12.263-29.495c0.953-18.426,5.07-29.507,10.381-36.569
		c-8.065-18.003-14.531-36.872-19.561-56.324c-6.057-3.693-11.842-7.794-17.164-12.688c-6.327-5.844-11.067-12.171-15.346-18.957
		c-8.881-9.663-14.264-22.432-12.401-40.309c2.311-22.381,14.861-33.927,30.826-40.848c-0.307-33.127,2.369-66.378,7.404-98.579
		c-7.629-5.104-14.706-10.652-21.181-16.723c-8.168-6.097-15.576-12.723-21.581-19.971c-7.063,45.716-13.804,90.786-14.149,137.284
		c-0.598,78.34,16.266,158.866,51.099,229.222c16.864,34.074,38.146,66.583,64.558,94.03c21.627,22.479,46.704,34.466,75.509,40.769
		c46.506,4.677,102.651-6.117,148.98-17.064c15.399-21.789,48.668-30.198,72.166-38.59c25.787-8.995,52.198-17.055,78.543-25.316
		c-1.814-4.108-2.391-8.883-3.263-13.359c-1.61-8.421-3.175-16.841-5.061-25.192c-2.002-8.812,11.181-12.517,13.597-3.727
		c2.255,8.237,4.164,16.542,6.166,24.847c1.008,4.211,2.505,8.563,2.946,12.892c65.435-20.833,129.653-44.24,182.019-87.734
		c-19.327-24.086-31.213-54.206-38.552-84.546c-62.922,11.608-131.337-1.699-188.669-30.218
		c-42.363-5.195-71.568-12.296-72.481-12.559c-3.06-0.85-4.855-4.026-3.98-7.086c0.851-3.059,4.049-4.831,7.086-3.979
		c0.506,0.137,51.72,14.31,122.283,14.31c0.552,0,1.104,0,1.68,0c65.64-0.207,161.695-13.159,246.339-73.692
		c162.569-116.21,178.881-229.774,179.019-230.901c0.414-3.151,3.313-5.36,6.442-4.969c3.152,0.391,5.384,3.267,4.97,6.419
		c-0.107,0.899-7.521,25.321-15.323,48.994c-4.856,58.055-16.034,115.703-45.313,166.214c12.058,15.357,23.831,31.14,34.04,47.558
		c0.514,0.825,0.976,1.651,1.469,2.477C1053.183,680.477,1124.785,624.161,1118.169,540.352z M639.066,828.034
		c5.936,18.428,15.415,40.032,11.021,59.704c-1.242,5.568-8.375,4.394-10.124,0c-6.971-17.509-9.916-37.549-15.461-55.702
		C621.649,822.696,636.098,818.831,639.066,828.034z M621.949,917.624c2.462,7.984,4.923,18.36,1.68,26.458
		c-1.933,4.832-8.375,5.177-10.192,0c-1.242-3.52-1.542-7.615-2.186-11.319c-0.667-3.888-1.541-7.662-2.761-11.435
		C605.729,912.77,619.28,909.065,621.949,917.624z M578.488,821.661c1.933,14.149,3.774,28.298,6.396,42.357
		c2.393,12.929,7.754,25.883,8.858,38.904c0.368,4.325-5.798,6.695-8.582,3.567c-8.95-10.078-11.734-25.815-14.058-38.675
		c-2.669-14.678-3.934-29.588-5.545-44.405C564.776,816.024,577.499,814.39,578.488,821.661z M519.934,847.867
		c1.68,10.445,4.118,20.637,7.362,30.691c2.922,9.042,7.846,18.015,7.109,27.677c-0.368,4.694-5.475,6.88-9.088,3.751
		c-7.362-6.351-9.893-16.175-12.769-25.193c-3.405-10.744-5.844-21.696-7.454-32.831
		C503.714,842.322,518.347,838.042,519.934,847.867z M482.456,955.931c0.276-8.858,13.459-8.834,13.735,0
		c0.299,9.502,3.06,21.927-3.635,29.725c-1.519,1.772-4.947,1.772-6.465,0C479.395,977.857,482.157,965.433,482.456,955.931z
		 M701.234,655.776c-4.923,16.701-13.486,31.977-27.105,43.325c-40.044,37.819-99.445,41.215-147.009,16.44
		c-77.478-9.387-162.477-78.214-143.572-162.259c0.766-3.414,3.616-4.84,6.453-4.685c-0.49-39.676,11.518-78.953,38.08-108.58
		c10.289-39.916,35.471-74.037,79.131-85.541c0.046,0,0.161-0.046,0.184-0.046c30.208-11.135,61.498-5.499,95.756,17.187
		c33.982,22.501,64.075,55.654,89.475,98.563c21.305,35.96,33.636,68.032,33.636,98.126
		C726.263,599.546,721.183,632.329,701.234,655.776z M940.668,512.765c-1.866,2.256-4.359,2.263-6.364,1.116
		c-0.786,1.938-1.615,3.861-2.494,5.764c-17.95,33.656-64.339,51.972-96.502,25.118c-11.116-2.527-21.798-6.941-31.35-13.154
		c-29.817-19.396-46.727-53.561-56.391-87.774c-7.937-28.068-15.001-69.044,2.416-95.342c18.061-27.286,48.039-26.803,74.313-15.552
		c2.249,0.965,4.462,2.03,6.649,3.142c37.272,4.273,73.318,23.832,94.591,54.356c2.302-0.486,4.829,0.199,6.157,2.62
		C952.08,430.17,972.027,474.896,940.668,512.765z M1042.406,661.07c-0.575,4.809-7.063,9.457-10.974,4.557
		c-3.428-4.303-5.292-9.595-7.385-14.656c-2.255-5.475-4.947-10.722-7.961-15.829c-5.085-8.583,7.961-16.083,13.275-7.777
		C1035.25,636.545,1043.763,649.682,1042.406,661.07z M1052.644,606.934c-7.156-3.497-11.918-11.159-16.289-17.532
		c-5.131-7.5-10.008-15.185-15.898-22.156c-6.488-7.684,4.532-18.865,11.136-11.135c5.958,6.925,11.112,14.426,16.289,21.925
		c4.809,7.018,10.836,13.828,14.104,21.696C1064.309,605.37,1056.992,609.051,1052.644,606.934z M1079.264,563.681
		c-6.373-4.257-11.159-10.928-16.657-16.221c-6.074-5.82-12.585-11.158-18.866-16.726c-7.546-6.672,3.429-17.416,10.974-10.997
		c11.826,10.077,31.658,21.879,33.797,38.629C1089.087,562.968,1082.83,566.074,1079.264,563.681z M144.94,458.078
		c-4.763-0.713-9.824-1.473-15.07-1.887c11.251-19.003,21.581-33.222,37.157-51.329c4.187,11.067,9.088,25.193,4.785,36.697
		c-3.359,8.95-13.574,15.277-23.444,17.025C147.263,458.446,146.113,458.261,144.94,458.078z"/>
</g>
</svg>
